<svg width="668" height="493" viewBox="0 0 668 493" fill="none" xmlns="http://www.w3.org/2000/svg">
<g clip-path="url(#clip0)">
<path d="M595.781 263.693C592.87 297.343 578.214 329.86 557.306 356.754C556.432 357.878 555.547 358.993 554.653 360.097C552.639 362.581 550.573 365.018 548.456 367.408C545.865 370.352 543.198 373.23 540.457 376.039C538.224 378.351 535.94 380.614 533.604 382.827C531.802 384.553 529.978 386.245 528.134 387.904C505.946 407.97 480.457 424.53 454.196 439.011C402.945 467.264 346.77 488.666 288.339 491.783C229.916 494.892 168.926 478.145 126.08 438.262C68.336 384.514 52.2202 294.867 75.6643 219.514C91.2572 169.383 123.083 124.032 166.397 94.4124C209.336 65.0508 263.506 51.8345 314.772 60.4736C355.698 35.5798 409.274 35.1033 453.766 53.5296C477.507 63.3636 498.813 77.9859 517.504 95.6544C526.064 103.763 534.073 112.434 541.479 121.61C542.236 122.54 542.985 123.477 543.727 124.422C546.833 128.351 549.837 132.361 552.74 136.451C556.908 142.317 560.865 148.314 564.611 154.44C565.641 156.127 566.663 157.822 567.662 159.533C568.333 160.681 569.012 161.837 569.676 163.001C569.691 163.025 569.701 163.051 569.707 163.079C580.094 181.365 588.586 200.877 593.011 221.271C593.791 224.88 594.447 228.504 594.954 232.16V232.168C595.399 235.269 595.734 238.385 595.961 241.518C596.494 248.902 596.434 256.318 595.781 263.693Z" fill="#3F3D56"/>
<path opacity="0.3" d="M443.318 314.563L327.454 217.958L440.014 318.433C440.232 318.8 440.534 319.111 440.896 319.338C441.257 319.565 441.668 319.702 442.093 319.739C442.519 319.776 442.947 319.71 443.342 319.548C443.737 319.386 444.088 319.132 444.365 318.807C444.643 318.482 444.839 318.096 444.937 317.68C445.035 317.264 445.033 316.831 444.931 316.416C444.828 316.001 444.629 315.617 444.348 315.294C444.068 314.972 443.714 314.722 443.318 314.563Z" fill="#F0F0F0"/>
<path d="M177.612 265.404C215.972 265.404 247.07 234.279 247.07 195.885C247.07 157.492 215.972 126.367 177.612 126.367C139.251 126.367 108.154 157.492 108.154 195.885C108.154 234.279 139.251 265.404 177.612 265.404Z" fill="#F2F2F2"/>
<path d="M239.266 191.199C239.266 199.508 237.632 207.735 234.455 215.412C231.278 223.088 226.622 230.063 220.752 235.938C214.882 241.814 207.913 246.474 200.243 249.653C192.573 252.833 184.352 254.469 176.051 254.468C168.652 254.464 161.31 253.169 154.355 250.641C143.481 246.676 133.901 239.801 126.66 230.764C119.42 221.728 114.794 210.877 113.288 199.392C111.782 187.907 113.453 176.228 118.119 165.628C122.785 155.028 130.267 145.912 139.751 139.272C149.235 132.633 160.357 128.725 171.906 127.974C183.455 127.223 194.989 129.658 205.252 135.013C215.514 140.368 224.112 148.438 230.11 158.345C236.107 168.252 239.274 179.615 239.266 191.199Z" fill="white"/>
<path d="M165.125 189.637C175.9 189.637 184.636 180.894 184.636 170.109C184.636 159.324 175.9 150.582 165.125 150.582C154.349 150.582 145.614 159.324 145.614 170.109C145.614 180.894 154.349 189.637 165.125 189.637Z" fill="#E4E4E4"/>
<path d="M236.799 173.647C232.571 175.684 227.751 176.126 223.223 174.894C218.695 173.663 214.762 170.839 212.145 166.94C209.528 163.042 208.402 158.33 208.974 153.669C209.546 149.007 211.778 144.708 215.26 141.56C225.606 149.747 233.137 160.966 236.799 173.647Z" fill="#F2F2F2"/>
<path d="M197.122 219.319C201.002 219.319 204.146 216.171 204.146 212.289C204.146 208.406 201.002 205.259 197.122 205.259C193.243 205.259 190.099 208.406 190.099 212.289C190.099 216.171 193.243 219.319 197.122 219.319Z" fill="#E4E4E4"/>
<path d="M168.247 252.125C168.246 252.742 168.165 253.357 168.005 253.953C163.344 253.369 158.765 252.258 154.355 250.641C154.721 248.945 155.701 247.444 157.106 246.427C158.512 245.411 160.243 244.95 161.967 245.135C163.691 245.319 165.286 246.135 166.445 247.425C167.605 248.716 168.246 250.389 168.247 252.125Z" fill="#F2F2F2"/>
<path d="M126.884 188.074C126.883 191.641 125.529 195.074 123.095 197.679C120.66 200.283 117.328 201.865 113.773 202.103C112.163 192.818 112.632 183.291 115.146 174.21C118.425 174.757 121.405 176.451 123.554 178.989C125.703 181.528 126.883 184.747 126.884 188.074Z" fill="#F2F2F2"/>
<path d="M473.296 165.739C474.892 165.739 476.186 164.444 476.186 162.847C476.186 161.249 474.892 159.955 473.296 159.955C471.7 159.955 470.407 161.249 470.407 162.847C470.407 164.444 471.7 165.739 473.296 165.739Z" fill="#21BFC2"/>
<path d="M446.641 95.3817C447.574 95.3817 448.329 94.6252 448.329 93.6921C448.329 92.759 447.574 92.0025 446.641 92.0025C445.709 92.0025 444.953 92.759 444.953 93.6921C444.953 94.6252 445.709 95.3817 446.641 95.3817Z" fill="#F0F0F0"/>
<path d="M175.832 426.569C176.765 426.569 177.521 425.813 177.521 424.88C177.521 423.946 176.765 423.19 175.832 423.19C174.9 423.19 174.144 423.946 174.144 424.88C174.144 425.813 174.9 426.569 175.832 426.569Z" fill="#F0F0F0"/>
<path d="M456.224 260.699C457.157 260.699 457.912 259.942 457.912 259.009C457.912 258.076 457.157 257.319 456.224 257.319C455.292 257.319 454.536 258.076 454.536 259.009C454.536 259.942 455.292 260.699 456.224 260.699Z" fill="#F0F0F0"/>
<path d="M238.387 276.655C239.983 276.655 241.277 275.36 241.277 273.763C241.277 272.166 239.983 270.871 238.387 270.871C236.791 270.871 235.498 272.166 235.498 273.763C235.498 275.36 236.791 276.655 238.387 276.655Z" fill="#21BFC2"/>
<path d="M133.81 338.972C141.345 338.972 147.454 332.858 147.454 325.316C147.454 317.774 141.345 311.66 133.81 311.66C126.274 311.66 120.165 317.774 120.165 325.316C120.165 332.858 126.274 338.972 133.81 338.972Z" fill="#21BFC2"/>
<path d="M208.61 342.21C209.543 342.21 210.299 341.454 210.299 340.521C210.299 339.587 209.543 338.831 208.61 338.831C207.678 338.831 206.922 339.587 206.922 340.521C206.922 341.454 207.678 342.21 208.61 342.21Z" fill="#F0F0F0"/>
<path d="M380.305 78.1974C381.237 78.1974 381.993 77.441 381.993 76.5078C381.993 75.5747 381.237 74.8182 380.305 74.8182C379.372 74.8182 378.617 75.5747 378.617 76.5078C378.617 77.441 379.372 78.1974 380.305 78.1974Z" fill="#F0F0F0"/>
<path d="M279.63 438.286C280.562 438.286 281.318 437.529 281.318 436.596C281.318 435.663 280.562 434.907 279.63 434.907C278.697 434.907 277.941 435.663 277.941 436.596C277.941 437.529 278.697 438.286 279.63 438.286Z" fill="#F0F0F0"/>
<path d="M254.656 93.8195C255.588 93.8195 256.344 93.063 256.344 92.1299C256.344 91.1968 255.588 90.4403 254.656 90.4403C253.723 90.4403 252.968 91.1968 252.968 92.1299C252.968 93.063 253.723 93.8195 254.656 93.8195Z" fill="#F0F0F0"/>
<path d="M298.36 175.835C299.292 175.835 300.048 175.079 300.048 174.146C300.048 173.213 299.292 172.456 298.36 172.456C297.427 172.456 296.672 173.213 296.672 174.146C296.672 175.079 297.427 175.835 298.36 175.835Z" fill="#F0F0F0"/>
<path d="M231.461 377.083C232.393 377.083 233.149 376.326 233.149 375.393C233.149 374.46 232.393 373.704 231.461 373.704C230.528 373.704 229.773 374.46 229.773 375.393C229.773 376.326 230.528 377.083 231.461 377.083Z" fill="#F0F0F0"/>
<path d="M428.909 388.018C429.842 388.018 430.597 387.262 430.597 386.329C430.597 385.396 429.842 384.639 428.909 384.639C427.977 384.639 427.221 385.396 427.221 386.329C427.221 387.262 427.977 388.018 428.909 388.018Z" fill="#F0F0F0"/>
<path d="M341.501 289.599C342.434 289.599 343.189 288.843 343.189 287.91C343.189 286.977 342.434 286.22 341.501 286.22C340.569 286.22 339.813 286.977 339.813 287.91C339.813 288.843 340.569 289.599 341.501 289.599Z" fill="#F0F0F0"/>
<path d="M385.986 175.558C386.918 175.558 387.674 174.802 387.674 173.869C387.674 172.936 386.918 172.179 385.986 172.179C385.053 172.179 384.298 172.936 384.298 173.869C384.298 174.802 385.053 175.558 385.986 175.558Z" fill="#F0F0F0"/>
<path d="M466.862 231.943C468.711 231.943 470.209 230.444 470.209 228.593C470.209 226.743 468.711 225.243 466.862 225.243C465.013 225.243 463.515 226.743 463.515 228.593C463.515 230.444 465.013 231.943 466.862 231.943Z" fill="#FF6584"/>
<path d="M331.067 121.027C332.916 121.027 334.414 119.527 334.414 117.677C334.414 115.827 332.916 114.327 331.067 114.327C329.219 114.327 327.72 115.827 327.72 117.677C327.72 119.527 329.219 121.027 331.067 121.027Z" fill="#FF6584"/>
<path d="M331.067 351.452C332.916 351.452 334.414 349.952 334.414 348.102C334.414 346.252 332.916 344.752 331.067 344.752C329.219 344.752 327.72 346.252 327.72 348.102C327.72 349.952 329.219 351.452 331.067 351.452Z" fill="#FF6584"/>
<path d="M539.606 367.408C538.302 367.409 537.034 367.835 535.994 368.621C534.953 369.408 534.197 370.512 533.838 371.766C533.681 372.304 533.602 372.862 533.604 373.422V382.827C535.938 380.616 538.222 378.354 540.456 376.039C543.196 373.227 545.862 370.35 548.456 367.408H539.606Z" fill="#21BFC2"/>
<path d="M560.856 416.274C550.779 416.274 539.734 415.893 527.722 415.13C465.589 411.181 385.108 397.452 301.104 376.472C217.1 355.492 139.61 329.767 82.9073 304.037C55.2859 291.503 34.0867 279.638 19.8991 268.772C4.87814 257.269 -1.69224 247.242 0.369703 238.971C4.38735 222.858 39.9616 219.332 69.0974 219.212L69.1073 221.556C29.0962 221.72 5.49168 228.107 2.64167 239.538C-0.988775 254.098 28.6195 276.829 83.8741 301.903C140.452 327.576 217.8 353.252 301.671 374.199C385.542 395.145 465.874 408.851 527.87 412.792C588.415 416.641 625.223 410.497 628.854 395.937C631.867 383.848 611.998 366.04 572.905 345.792L573.981 343.711C602.386 358.423 635.358 379.525 631.125 396.505C629.063 404.776 618.556 410.537 599.896 413.629C589.26 415.391 576.195 416.274 560.856 416.274Z" fill="#21BFC2"/>
<path d="M557.681 241.58C600.998 241.58 636.114 206.434 636.114 163.079C636.114 119.724 600.998 84.5784 557.681 84.5784C514.363 84.5784 479.247 119.724 479.247 163.079C479.247 206.434 514.363 241.58 557.681 241.58Z" fill="white"/>
<path d="M557.681 83.4067C541.936 83.4067 526.546 88.0794 513.455 96.8339C500.364 105.588 490.161 118.032 484.136 132.59C478.111 147.148 476.535 163.168 479.606 178.622C482.678 194.077 490.259 208.274 501.392 219.416C512.525 230.558 526.709 238.147 542.151 241.221C557.592 244.295 573.598 242.717 588.144 236.687C602.689 230.657 615.122 220.445 623.869 207.343C632.616 194.241 637.284 178.837 637.284 163.079C637.322 152.606 635.289 142.229 631.301 132.545C627.314 122.862 621.452 114.064 614.053 106.658C606.653 99.2524 597.863 93.3852 588.188 89.3947C578.513 85.4041 568.145 83.369 557.681 83.4067ZM557.681 240.408C542.399 240.408 527.462 235.873 514.756 227.376C502.05 218.879 492.147 206.802 486.299 192.672C480.452 178.542 478.921 162.993 481.903 147.993C484.884 132.993 492.242 119.214 503.048 108.399C513.853 97.5845 527.62 90.2196 542.607 87.2359C557.595 84.2521 573.13 85.7835 587.248 91.6363C601.365 97.4892 613.432 107.401 621.922 120.117C630.412 132.834 634.943 147.785 634.943 163.079C634.982 173.245 633.011 183.319 629.142 192.718C625.273 202.118 619.584 210.659 612.401 217.847C605.219 225.036 596.686 230.73 587.294 234.602C577.903 238.475 567.838 240.448 557.681 240.408Z" fill="#2F2E41"/>
<path d="M488.85 181.881C488.491 181.88 488.143 181.756 487.865 181.529C487.587 181.301 487.395 180.985 487.323 180.633C485.08 169.195 485.485 157.395 488.507 146.138C491.529 134.881 497.089 124.467 504.759 115.696C505.034 115.388 505.421 115.202 505.833 115.179C506.246 115.156 506.65 115.298 506.959 115.573C507.267 115.848 507.454 116.234 507.479 116.647C507.503 117.059 507.363 117.465 507.089 117.774C499.739 126.18 494.412 136.16 491.515 146.947C488.619 157.735 488.231 169.043 490.381 180.004C490.427 180.231 490.423 180.466 490.367 180.691C490.312 180.916 490.207 181.126 490.061 181.306C489.914 181.485 489.729 181.63 489.52 181.73C489.311 181.829 489.082 181.881 488.85 181.881H488.85Z" fill="#2F2E41"/>
<path d="M557.631 236.011C585.164 236.011 607.483 213.672 607.483 186.116C607.483 158.56 585.164 136.222 557.631 136.222C530.099 136.222 507.78 158.56 507.78 186.116C507.78 213.672 530.099 236.011 557.631 236.011Z" fill="#21BFC2"/>
<path d="M541.788 204.953C538.556 204.863 534.534 204.751 531.436 202.486C530.514 201.784 529.756 200.888 529.215 199.862C528.675 198.836 528.365 197.703 528.308 196.545C528.252 195.721 528.387 194.896 528.703 194.134C529.018 193.371 529.505 192.692 530.127 192.149C531.745 190.78 534.108 190.459 536.654 191.208L534.016 171.91L535.953 171.645L539.055 194.332L537.437 193.589C535.562 192.729 532.988 192.29 531.389 193.643C530.996 193.997 530.69 194.437 530.494 194.928C530.299 195.419 530.219 195.949 530.262 196.476C530.309 197.338 530.542 198.18 530.943 198.945C531.345 199.709 531.906 200.378 532.589 200.906C535.001 202.668 538.206 202.896 541.842 202.998L541.788 204.953Z" fill="#2F2E41"/>
<path d="M524.438 173.575H513.908V175.531H524.438V173.575Z" fill="#2F2E41"/>
<path d="M557.672 173.575H547.143V175.531H557.672V173.575Z" fill="#2F2E41"/>
<path d="M559.725 248.344H514.538C512.854 248.346 511.239 249.016 510.048 250.208C508.857 251.4 508.187 253.017 508.186 254.702V354.941C508.19 361.734 510.051 368.396 513.568 374.206C517.084 380.017 522.121 384.753 528.134 387.904C529.983 386.248 531.807 384.556 533.604 382.827C535.938 380.616 538.222 378.354 540.456 376.039C543.196 373.227 545.862 370.35 548.456 367.408C550.579 365.018 552.644 362.581 554.653 360.097C555.55 358.995 556.434 357.881 557.306 356.754C578.214 329.86 592.87 297.343 595.781 263.693C591.114 258.836 585.514 254.973 579.318 252.335C573.123 249.698 566.458 248.34 559.725 248.344Z" fill="#2F2E41"/>
<path d="M561.372 269.262C560.297 268.209 559.024 267.379 557.627 266.82C556.23 266.26 554.736 265.984 553.232 266.005C550.617 266.025 548.091 266.953 546.083 268.63C545.762 268.89 545.457 269.169 545.17 269.465L508.186 307.427L481.362 334.961C480.955 335.372 480.618 335.847 480.363 336.367C479.961 337.172 479.755 338.06 479.763 338.96C479.771 339.7 479.925 340.431 480.217 341.111C480.509 341.79 480.933 342.405 481.464 342.92L482.518 343.951L490.166 351.411L490.174 351.403C491.201 352.238 492.487 352.688 493.81 352.676C494.55 352.668 495.28 352.514 495.959 352.221C496.638 351.929 497.253 351.505 497.767 350.973L499.008 349.708L507.889 340.593L508.186 340.288L561.575 285.486C563.697 283.307 564.867 280.374 564.829 277.332C564.791 274.29 563.548 271.387 561.372 269.262L561.372 269.262Z" fill="#21BFC2"/>
<path d="M560.997 162.839C562.645 159.35 560.955 155.623 558.059 153.395C554.41 150.586 549.692 151.051 545.541 152.38C540.997 153.835 536.556 156.454 531.647 156.304C529.897 156.272 528.198 155.713 526.771 154.699C525.345 153.684 524.257 152.262 523.652 150.619C521.023 143.871 523.992 136.329 528.568 131.211C531.152 128.281 534.345 125.952 537.924 124.388C541.503 122.825 545.38 122.065 549.284 122.161C553.74 122.383 558.072 123.704 561.894 126.008C565.716 128.311 568.909 131.526 571.189 135.364C571.351 135.626 571.608 135.816 571.906 135.894C572.204 135.972 572.521 135.933 572.791 135.784C576.264 134.23 580.011 133.381 583.815 133.285C587.618 133.189 591.403 133.849 594.95 135.227C600.272 137.398 604.807 141.138 607.955 145.95C611.102 150.762 612.713 156.418 612.572 162.168C612.533 163.677 614.875 163.676 614.914 162.168C615.06 154.13 612.096 146.346 606.642 140.444C603.873 137.501 600.542 135.143 596.847 133.511C593.151 131.879 589.167 131.004 585.128 130.94C580.466 130.84 575.843 131.805 571.609 133.761L573.211 134.181C571.1 130.626 568.265 127.555 564.89 125.17C561.516 122.784 557.676 121.136 553.623 120.334C549.609 119.584 545.481 119.708 541.519 120.695C537.557 121.683 533.854 123.512 530.66 126.058C524.649 130.765 520.094 138.071 520.377 145.906C520.5 149.296 521.507 152.777 523.859 155.303C526.871 158.539 531.368 159.099 535.523 158.27C541.045 157.168 546.087 153.533 551.843 153.645C552.971 153.645 554.085 153.886 555.113 154.35C556.142 154.814 557.06 155.491 557.807 156.336C559.075 157.768 559.839 159.828 558.975 161.656C558.335 163.012 560.352 164.203 560.997 162.839L560.997 162.839Z" fill="#2F2E41"/>
<path d="M187.353 444.725C159.57 444.726 133.742 443.772 110.619 441.847C80.3961 439.329 56.4463 435.283 39.4361 429.82C21.4264 424.036 11.8719 416.802 11.0377 408.318C9.41211 391.791 41.7351 376.508 69.137 366.597L69.9327 368.801C32.3029 382.411 12.2145 396.363 13.3676 408.089C14.8362 423.023 50.3538 434.476 110.813 439.511C172.721 444.667 254.192 442.84 340.218 434.364C426.245 425.89 506.509 411.785 566.224 394.648C624.542 377.912 657.148 359.748 655.679 344.814C654.46 332.415 629.767 322.324 586.149 316.399L586.464 314.077C618.157 318.382 656.296 327.169 658.009 344.585C658.843 353.069 650.881 362.028 634.344 371.216C618.724 379.893 596.022 388.535 566.869 396.9C507.022 414.076 426.611 428.208 340.448 436.696C286.396 442.021 234.118 444.725 187.353 444.725Z" fill="#21BFC2"/>
<path d="M654.356 353.032C661.891 353.032 668 346.918 668 339.376C668 331.834 661.891 325.72 654.356 325.72C646.82 325.72 640.711 331.834 640.711 339.376C640.711 346.918 646.82 353.032 654.356 353.032Z" fill="#21BFC2"/>
<path d="M258.678 27.3121C266.214 27.3121 272.323 21.1981 272.323 13.6561C272.323 6.11402 266.214 0 258.678 0C251.143 0 245.034 6.11402 245.034 13.6561C245.034 21.1981 251.143 27.3121 258.678 27.3121Z" fill="#E6E6E6"/>
<path d="M15.1844 352.251C22.72 352.251 28.8287 346.137 28.8287 338.595C28.8287 331.053 22.72 324.939 15.1844 324.939C7.64891 324.939 1.54016 331.053 1.54016 338.595C1.54016 346.137 7.64891 352.251 15.1844 352.251Z" fill="#E6E6E6"/>
<path d="M99.4708 93.096C104.084 93.096 107.823 89.3533 107.823 84.7364C107.823 80.1195 104.084 76.3768 99.4708 76.3768C94.8579 76.3768 91.1183 80.1195 91.1183 84.7364C91.1183 89.3533 94.8579 93.096 99.4708 93.096Z" fill="#FF6584"/>
<path d="M60.4493 410.224C65.0623 410.224 68.8018 406.481 68.8018 401.864C68.8018 397.247 65.0623 393.504 60.4493 393.504C55.8364 393.504 52.0969 397.247 52.0969 401.864C52.0969 406.481 55.8364 410.224 60.4493 410.224Z" fill="#FF6584"/>
<path d="M630.162 273.531C634.775 273.531 638.515 269.788 638.515 265.171C638.515 260.554 634.775 256.811 630.162 256.811C625.55 256.811 621.81 260.554 621.81 265.171C621.81 269.788 625.55 273.531 630.162 273.531Z" fill="#FF6584"/>
<path d="M503.733 481.133C511.269 481.133 517.377 475.019 517.377 467.477C517.377 459.935 511.269 453.821 503.733 453.821C496.197 453.821 490.089 459.935 490.089 467.477C490.089 475.019 496.197 481.133 503.733 481.133Z" fill="#E6E6E6"/>
</g>
<defs>
<clipPath id="clip0">
<rect width="668" height="492.146" fill="white"/>
</clipPath>
</defs>
</svg>
