<svg width="583" height="534" viewBox="0 0 583 534" fill="none" xmlns="http://www.w3.org/2000/svg">
<g clip-path="url(#clip0)">
<path d="M373.515 426.454L379.117 439.021C374.563 438.296 370.328 442.187 370.233 447.183C370.138 452.18 374.2 457.379 378.754 458.089C377.884 461.968 374.128 463.679 370.867 465.247C367.607 466.815 364.093 469.415 364.336 473.549C364.531 476.868 367.274 479.798 370.188 480.977C373.101 482.155 376.158 481.974 379.109 481.776C374.637 486.455 374.201 495.25 378.128 501.561C382.055 507.871 389.897 510.977 395.769 508.548C391.62 513.711 392.521 523.167 397.67 528.495C402.861 533.867 410.383 534.387 416.959 533.821C433.705 532.404 449.662 526.078 462.832 515.633C467.86 511.637 472.556 506.936 475.423 500.806C478.291 494.675 479.136 486.912 476.465 479.935C477.185 488.675 485.929 495.578 493.796 495.964C501.662 496.351 508.53 491.918 514.366 486.863C522.127 480.141 529.314 470.719 528.248 459.093C527.721 453.337 525.208 447.802 522.744 442.44L517.966 432.045C516.037 427.849 514.064 423.582 511.161 420.06C508.258 416.539 504.228 413.812 500.196 413.838C501.118 409.624 502.044 405.253 501.271 400.775C500.499 396.298 497.54 391.662 493.516 390.613C488.395 389.279 484.055 394.007 478.905 393.561C473.95 393.132 469.854 388.156 465.042 386.185C463.061 385.328 460.873 385.067 458.745 385.435C456.618 385.803 454.645 386.784 453.066 388.257C450.016 391.237 448.744 396.27 449.839 401.033C450.798 405.206 453.35 408.886 454.899 412.909C456.448 416.933 456.688 422.107 453.713 424.305C450.123 426.957 444.659 423.348 441.855 418.983C439.05 414.617 437.44 409.331 433.893 405.659C429.707 401.326 423.155 400.31 418.845 403.327C414.535 406.344 412.887 413.099 415.06 418.841C416.836 423.537 420.906 428.286 419.495 432.708C418.003 437.381 411.475 436.789 407.538 433.487C403.601 430.184 400.987 425.21 397.097 421.833C393.147 418.404 387.989 416.901 383.461 417.861C381.164 418.394 379.038 419.497 377.28 421.069C375.522 422.641 374.187 424.631 373.4 426.855" fill="#E6E6E6"/>
<path d="M464.217 391.138L452.593 396.541C450.846 397.404 448.864 397.671 446.951 397.302C445.263 396.902 444.123 395.87 443.823 394.469L441.118 381.83C440.608 379.446 442.581 376.625 445.811 375.124L452.231 372.14C455.46 370.639 458.888 370.949 460.38 372.877L468.29 383.096C469.168 384.229 469.221 385.767 468.437 387.314C467.486 389.016 466.003 390.358 464.217 391.138Z" fill="#3F3D56"/>
<path d="M103.78 157.55C114.708 127.627 131.762 100.317 153.849 77.3689C172.588 57.9069 201.753 58.7155 201.753 58.7155L201.92 58.5087C208.939 49.849 218.358 43.4559 228.996 40.1315C239.633 36.807 251.015 36.6993 261.713 39.8218C264.494 40.6201 266.632 40.974 267.65 40.6184C286.196 34.1247 285.324 19.4678 301.325 7.66035C329.342 -13.0138 422.271 10.668 435.375 48.711C445.996 79.544 493.403 94.4884 511.114 118.073C513.884 121.761 516.601 125.491 519.266 129.265C520.516 131.018 521.751 132.784 522.973 134.563C535.521 152.744 546.779 171.783 556.662 191.54C563.143 204.449 568.776 217.767 573.524 231.409C591.995 285.43 585.679 325.679 534.748 315.735C528.719 314.555 522.835 313.499 517.096 312.567C508.785 311.211 500.764 310.096 493.033 309.222C482.622 308.038 472.718 307.262 463.319 306.894C460.159 306.767 457.057 306.682 454.013 306.638C409.003 306.014 375.617 314.489 350.182 327.645C345.87 329.87 341.784 332.223 337.924 334.705C332.028 338.476 326.399 342.648 321.075 347.192C313.709 353.516 306.916 360.48 300.775 368.002L300.438 368.415C270.689 404.82 260.898 445.122 240.205 452.218C151.744 482.557 95.7972 372.578 90.0597 264.994C89.77 259.573 89.6099 254.167 89.5796 248.777C89.5616 246.367 89.5735 243.964 89.6151 241.568C89.7059 235.316 89.9814 229.104 90.4428 222.967C90.6151 220.62 90.8149 218.286 91.0423 215.965C91.2929 213.461 91.5656 210.973 91.8806 208.5C94.131 190.373 98.0678 173.126 103.78 157.55Z" fill="#21BFC2"/>
<path d="M377.962 216.742C370.897 220.032 370.781 234.771 372.996 239.547L377.011 248.191L402.6 236.296L398.586 227.652C396.366 222.879 385.032 213.462 377.962 216.742Z" fill="#3F3D56"/>
<path d="M309.197 340.847C308.747 340.847 308.303 340.738 307.904 340.53C307.504 340.322 307.161 340.021 306.903 339.651C306.645 339.282 306.48 338.856 306.421 338.41C306.363 337.963 306.413 337.509 306.568 337.086C306.693 336.74 306.885 336.422 307.134 336.152C307.383 335.881 307.683 335.662 308.017 335.508L440.167 274.083C440.5 273.928 440.86 273.84 441.228 273.824C441.595 273.809 441.961 273.866 442.306 273.992C442.651 274.118 442.968 274.311 443.239 274.559C443.509 274.808 443.728 275.108 443.883 275.441C444.195 276.114 444.227 276.884 443.972 277.581C443.717 278.278 443.197 278.845 442.525 279.159H442.524L310.374 340.584C310.006 340.757 309.604 340.847 309.197 340.847Z" fill="#3F3D56"/>
<path d="M412.568 241.809L374.793 259.367L434.049 386.961L471.824 369.403L412.568 241.809Z" fill="#E6E6E6"/>
<path d="M270.765 81.1901C263.7 84.4806 263.584 99.2194 265.799 103.995L269.814 112.639L295.403 100.745L291.388 92.1006C289.169 87.327 277.835 77.9107 270.765 81.1901Z" fill="#3F3D56"/>
<path d="M429.055 405.806L417.431 411.209C415.684 412.072 413.702 412.339 411.788 411.97C410.101 411.571 408.961 410.538 408.661 409.137L405.956 396.498C405.445 394.114 407.419 391.293 410.649 389.792L417.068 386.808C420.298 385.307 423.726 385.617 425.218 387.545L433.128 397.764C434.005 398.897 434.058 400.435 433.275 401.982C432.323 403.684 430.841 405.027 429.055 405.806Z" fill="#3F3D56"/>
<path d="M393.317 423.545L381.693 428.948C379.945 429.811 377.964 430.078 376.05 429.709C374.363 429.309 373.222 428.277 372.923 426.876L370.218 414.237C369.707 411.853 371.681 409.032 374.911 407.531L381.33 404.547C384.56 403.046 387.987 403.356 389.479 405.284L397.39 415.503C398.267 416.636 398.32 418.174 397.537 419.721C396.585 421.423 395.103 422.765 393.317 423.545Z" fill="#3F3D56"/>
<path d="M315.45 127.961L277.676 145.52L397.454 403.436L435.229 385.877L315.45 127.961Z" fill="#E6E6E6"/>
<path d="M354.645 260.917L350.407 251.585L352.847 250.46L357.072 259.761L418.262 395.493L415.825 396.626" fill="#3F3D56"/>
<path d="M402.452 253.161L398.214 243.83L400.654 242.704L404.879 252.005L466.069 387.738L463.632 388.871" fill="#3F3D56"/>
<path d="M333.28 148.602L282.097 172.393C278.838 167.321 269.015 141.33 271.221 133.619L269.565 126.265L304.906 109.838L309.636 115.66C316.658 117.815 330.328 142.227 333.28 148.602Z" fill="#E6E6E6"/>
<path d="M306.383 110.153L269.913 127.104C268.567 127.73 267.133 127.5 266.711 126.591C266.651 126.459 266.613 126.319 266.6 126.175L264.712 106.03C264.632 105.168 265.369 104.19 266.496 103.666L290.682 92.4244C291.809 91.9006 293.031 91.967 293.638 92.5851L307.81 107.02C308.535 107.758 308.141 109.022 306.931 109.843C306.757 109.96 306.573 110.064 306.383 110.153Z" fill="#E6E6E6"/>
<path d="M334.987 267.979C334.592 267.98 334.199 267.933 333.815 267.84C333.274 267.728 332.766 267.494 332.33 267.155C331.894 266.816 331.541 266.381 331.298 265.885L309.001 217.874C308.079 215.886 309.317 213.345 311.763 212.208L344.411 197.032C346.857 195.895 349.597 196.588 350.521 198.575L372.817 246.586C373.04 247.092 373.144 247.642 373.122 248.194C373.099 248.746 372.951 249.286 372.688 249.772C372.115 250.872 371.187 251.746 370.055 252.252L337.407 267.427C336.65 267.785 335.824 267.973 334.987 267.979Z" fill="#3F3D56"/>
<path d="M339.452 275.246L301.677 292.804L360.933 420.398L398.707 402.84L339.452 275.246Z" fill="#E6E6E6"/>
<path d="M292.914 112.257L281.836 117.406C279.699 118.4 276.815 116.744 275.409 113.716C274.002 110.688 274.597 107.415 276.735 106.421L287.813 101.272C289.95 100.278 292.834 101.934 294.241 104.962C295.647 107.991 295.052 111.263 292.914 112.257Z" fill="#3F3D56"/>
<path d="M305.583 249.836C298.519 253.126 298.402 267.865 300.617 272.641L304.632 281.285L330.221 269.391L326.207 260.746C323.987 255.973 312.653 246.556 305.583 249.836Z" fill="#3F3D56"/>
<path d="M188.231 220.416C185.736 222.079 183.183 218.121 185.726 216.531C188.221 214.868 190.774 218.827 188.231 220.416Z" fill="#E6E6E6"/>
<path d="M447.94 163.539C445.445 165.202 442.892 161.244 445.434 159.655C447.929 157.992 450.483 161.95 447.94 163.539Z" fill="#E6E6E6"/>
<path d="M270.925 208.782C268.43 210.445 265.876 206.487 268.419 204.897C270.914 203.234 273.468 207.193 270.925 208.782Z" fill="#E6E6E6"/>
<path d="M188.231 363.901C185.736 365.564 183.183 361.605 185.726 360.016C188.221 358.353 190.774 362.311 188.231 363.901Z" fill="#E6E6E6"/>
<path d="M315.502 40.0906C313.006 41.7537 310.453 37.7953 312.996 36.206C315.491 34.543 318.044 38.5014 315.502 40.0906Z" fill="#E6E6E6"/>
<path d="M192.754 116.357C190.259 118.02 187.705 114.062 190.248 112.473C192.743 110.81 195.296 114.768 192.754 116.357Z" fill="#E6E6E6"/>
<path d="M369.303 94.493L367.715 94.1447L368.063 92.556L367.005 92.324L366.656 93.9126L365.069 93.5649L364.837 94.6236L366.424 94.972L366.077 96.56L367.135 96.792L367.483 95.2034L369.071 95.5517L369.303 94.493Z" fill="#E6E6E6"/>
<path d="M110.823 226.847L109.236 226.498L109.584 224.91L108.525 224.678L108.177 226.266L106.589 225.919L106.357 226.977L107.945 227.326L107.598 228.914L108.656 229.146L109.004 227.558L110.591 227.905L110.823 226.847Z" fill="#E6E6E6"/>
<path d="M436.355 294.361C435.034 294.973 433.525 295.036 432.157 294.536C430.79 294.036 429.676 293.014 429.062 291.693L422.528 277.626C421.917 276.305 421.855 274.795 422.355 273.428C422.855 272.061 423.878 270.948 425.198 270.335C426.517 269.721 428.026 269.657 429.394 270.156C430.761 270.655 431.874 271.677 432.489 272.996L439.022 287.064C439.634 288.385 439.697 289.896 439.197 291.264C438.697 292.632 437.675 293.746 436.355 294.361Z" fill="#3F3D56"/>
<path d="M325.236 346.067C323.915 346.679 322.405 346.742 321.038 346.242C319.671 345.742 318.557 344.72 317.942 343.4L311.409 329.332C310.798 328.011 310.735 326.501 311.236 325.134C311.736 323.767 312.759 322.655 314.078 322.041C315.398 321.428 316.907 321.363 318.274 321.862C319.641 322.361 320.755 323.383 321.369 324.702L327.903 338.77C328.515 340.092 328.577 341.602 328.078 342.97C327.578 344.338 326.556 345.452 325.236 346.067Z" fill="#3F3D56"/>
<path d="M426.291 263.625L382.486 283.986C379.697 279.646 371.29 257.401 373.177 250.802L374.104 243.418L400.26 230.58L406.056 235.431C414.222 232.669 426.225 252.913 426.291 263.625Z" fill="#E6E6E6"/>
<path d="M405.954 262.213L394.876 267.362C392.739 268.356 389.486 265.906 387.627 261.903C385.767 257.899 385.994 253.832 388.131 252.838L399.209 247.689C401.347 246.696 404.599 249.145 406.459 253.149C408.318 257.153 408.092 261.22 405.954 262.213Z" fill="#3F3D56"/>
<path d="M312.006 288.709L307.768 279.378L310.208 278.252L314.434 287.553L375.623 423.286L373.186 424.419" fill="#3F3D56"/>
<path d="M353.913 296.719L310.107 317.081C303.645 313.742 293.768 291.899 300.799 283.896L301.725 276.513L327.881 263.675L333.677 268.525C339.687 270.37 351.386 291.263 353.913 296.719Z" fill="#E6E6E6"/>
<path d="M332.673 293.366L321.596 298.515C319.458 299.509 316.408 297.495 314.797 294.026C313.186 290.557 313.615 286.926 315.752 285.933L326.83 280.783C328.968 279.79 332.018 281.804 333.629 285.273C335.24 288.741 334.811 292.372 332.673 293.366Z" fill="#3F3D56"/>
<path d="M110.661 198.969C147.412 198.969 177.204 169.163 177.204 132.397C177.204 95.6303 147.412 65.8251 110.661 65.8251C73.9111 65.8251 44.1191 95.6303 44.1191 132.397C44.1191 169.163 73.9111 198.969 110.661 198.969Z" fill="#FF6584"/>
<path opacity="0.3" d="M383.494 201.734L423.932 83.5798L379.528 200.32C379.309 200.597 379.158 200.922 379.09 201.269C379.021 201.616 379.036 201.974 379.133 202.314C379.231 202.654 379.407 202.966 379.649 203.224C379.891 203.482 380.191 203.678 380.524 203.797C380.857 203.916 381.213 203.953 381.564 203.907C381.914 203.86 382.248 203.731 382.539 203.529C382.829 203.327 383.067 203.059 383.233 202.747C383.399 202.435 383.489 202.088 383.494 201.734H383.494Z" fill="#F0F0F0"/>
<path d="M486.572 131.307C478.656 133.939 469.881 136.524 460.245 139.063C410.406 152.191 343.603 162.43 272.14 167.897C200.678 173.364 133.094 173.404 81.8398 168.01C56.8721 165.382 37.1241 161.603 23.1446 156.776C8.34411 151.667 0.56719 145.509 0.0295025 138.476C-1.01756 124.774 26.0085 112.715 48.8651 105.011L49.4841 106.848C18.096 117.428 1.21919 128.608 1.96227 138.329C2.90826 150.71 32.0965 160.825 82.0426 166.082C133.184 171.464 200.643 171.422 271.993 165.964C343.342 160.506 410.023 150.286 459.752 137.188C508.317 124.397 535.63 109.958 534.683 97.5773C533.898 87.2976 513.644 78.5039 477.652 72.8149L477.955 70.8998C504.107 75.0336 535.513 82.9915 536.616 97.4295C537.154 104.463 530.403 111.731 516.551 119.032C508.655 123.194 498.622 127.3 486.572 131.307Z" fill="#3F3D56"/>
<path d="M506.125 249.378C509.944 249.378 513.04 246.281 513.04 242.461C513.04 238.641 509.944 235.544 506.125 235.544C502.307 235.544 499.211 238.641 499.211 242.461C499.211 246.281 502.307 249.378 506.125 249.378Z" fill="#FF6584"/>
<path d="M550.056 436.813C553.875 436.813 556.97 433.716 556.97 429.896C556.97 426.075 553.875 422.978 550.056 422.978C546.238 422.978 543.142 426.075 543.142 429.896C543.142 433.716 546.238 436.813 550.056 436.813Z" fill="#F2F2F2"/>
<path d="M314.251 478.93C321.696 478.93 327.731 472.892 327.731 465.444C327.731 457.995 321.696 451.957 314.251 451.957C306.806 451.957 300.771 457.995 300.771 465.444C300.771 472.892 306.806 478.93 314.251 478.93Z" fill="#F2F2F2"/>
<path d="M211.53 300.438C215.349 300.438 218.445 297.341 218.445 293.521C218.445 289.7 215.349 286.603 211.53 286.603C207.712 286.603 204.616 289.7 204.616 293.521C204.616 297.341 207.712 300.438 211.53 300.438Z" fill="#3F3D56"/>
<path d="M443.977 309.441L473.808 317.166L492.105 353.12L461.172 354.334L443.977 309.441Z" fill="#E6E6E6"/>
<path d="M375.121 257.609L391.539 274.044L433.239 364.242L425.562 370.878L375.121 257.609Z" fill="#CCCCCC"/>
<path d="M339.421 272.507L340.709 295.708L380.069 386.952L390.132 385.656L339.421 272.507Z" fill="#CCCCCC"/>
<path d="M338.347 366.233L322.281 392.54L334.124 431.105L357.197 410.457L338.347 366.233Z" fill="#E6E6E6"/>
<path d="M480.27 382.398C471.929 382.398 462.786 382.082 452.842 381.452C401.408 378.184 334.786 366.823 265.247 349.463C195.708 332.103 131.561 310.817 84.6229 289.527C61.7579 279.155 44.2091 269.338 32.4645 260.347C20.0301 250.828 14.5912 242.531 16.298 235.687C19.6238 222.354 49.0724 219.437 73.1911 219.338L73.1992 221.277C40.0779 221.413 20.538 226.698 18.1788 236.157C15.1735 248.205 39.6833 267.013 85.4232 287.761C132.258 309.004 196.288 330.25 265.716 347.582C335.145 364.915 401.644 376.256 452.965 379.516C503.084 382.701 533.554 377.618 536.559 365.57C539.054 355.567 522.606 340.831 490.245 324.077L491.136 322.355C514.65 334.529 541.944 351.99 538.44 366.039C536.733 372.883 528.035 377.651 512.588 380.209C503.783 381.667 492.968 382.398 480.27 382.398Z" fill="#3F3D56"/>
</g>
<defs>
<clipPath id="clip0">
<rect width="583" height="534" fill="white"/>
</clipPath>
</defs>
</svg>
