<svg width="72" height="92" viewBox="0 0 72 92" fill="none" xmlns="http://www.w3.org/2000/svg">
<path d="M36 41.7209L28.9412 48.1395L12 37.4419V36.0155V34.9457V33.876L12.3529 33.1628L12.7059 32.4496L13.0588 31.0233L13.4118 29.9535L14.1176 29.5969L14.4706 29.2403H15.1765L18.7059 30.6667L23.2941 27.8139L29.6471 30.6667H30.7059L47.2941 9.27131H48.3529H49.0588L49.7647 9.6279L51.1765 9.98449L52.2353 10.3411L58.5882 1.06976L71.2941 3.56589L66.7059 10.3411L66 11.7674V12.8372V13.907H67.7647H68.1176H69.1765L69.8823 14.2636L70.2353 14.6202L70.5882 14.9767L70.9412 15.3333L71.2941 15.6899V16.0465V16.4031V16.7597L70.9412 17.1163L52.2353 41.3643L51.1765 41.7209L50.1176 41.3643L49.0588 40.6512L48 40.2946L47.2941 39.938L46.2353 39.5814L45.5294 39.2248L44.8235 39.5814L44.1176 39.938L42.7059 41.3643L42 42.0775L41.2941 42.7907L40.5882 43.1473H39.8823H39.1765L38.4706 42.4341L37.4118 41.7209H36.7059H36Z" fill="#21BFC2"/>
<path d="M23.2941 62.0465L17.2941 57.4108L19.7647 50.9922L17.2941 45.6434L17.6471 44.217L34.5882 55.6279V56.6977H28.5882L23.2941 62.0465Z" fill="#21BFC2"/>
<path d="M21.5294 70.2481L0.352966 91.2868L5.64708 81.3023H4.58826V79.876L12.353 61.3333L16.5883 59.907L21.5294 63.8295V70.2481Z" fill="#21BFC2"/>
</svg>
